# xmcd
# 
# Track frame offsets:
#     150
#     32562
#     51237
#     66250
#     77687
#     98875
#     115562
#     125875
#     141275
#     155400
#     188937
#     212050
#     226150
#     244225
#     267412
#     283412
#     304837
# 
# Disc length: 4329
# 
# Revision: 3
# Processed by: cddbd v1.5.2PL0 Copyright (c) Steve Scherf et al.
# Submitted via: fre:ac v1.0.31
# 
DISCID=fd10e711
DTITLE=JANIS IAN - Up 'til now
DYEAR=0
DGENRE=Pop
TTITLE0=Stars
TTITLE1=Jesse
TTITLE2=From me to you
TTITLE3=In the winter
TTITLE4=At seventeen
TTITLE5=I would like to dance
TTITLE6=Love is blind
TTITLE7=Party lights
TTITLE8=Will you dance?
TTITLE9=Miracle row
TTITLE10=Do you wanna dance?
TTITLE11=Silly habits
TTITLE12=The other side of the sun
TTITLE13=Fly too high
TTITLE14=Jenny (Iowa sunrise)
TTITLE15=Passion play
TTITLE16=This night
EXTD=
EXTT0=
EXTT1=
EXTT2=
EXTT3=
EXTT4=
EXTT5=
EXTT6=
EXTT7=
EXTT8=
EXTT9=
EXTT10=
EXTT11=
EXTT12=
EXTT13=
EXTT14=
EXTT15=
EXTT16=
PLAYORDER=
